<?xml version="1.0" standalone="no"?>
<!DOCTYPE svg PUBLIC "-//W3C//DTD SVG 20010904//EN"
 "http://www.w3.org/TR/2001/REC-SVG-20010904/DTD/svg10.dtd">
<svg version="1.0" xmlns="http://www.w3.org/2000/svg"
 width="2350.000000pt" height="1567.000000pt" viewBox="0 0 2350.000000 1567.000000"
 preserveAspectRatio="xMidYMid meet">

<g transform="translate(0.000000,1567.000000) scale(0.100000,-0.100000)"
fill="#000000" stroke="none">
<path d="M22395 15180 c-27 -4 -85 -20 -128 -35 -89 -32 -125 -68 -134 -134
-7 -54 2 -84 37 -124 l30 -34 2 -279 3 -279 32 -3 c33 -3 93 21 93 38 0 16 20
12 47 -10 18 -14 41 -20 78 -20 37 0 60 6 78 20 31 25 29 25 74 -5 26 -18 48
-25 73 -23 l35 3 0 281 0 280 27 32 c49 59 49 148 0 203 -18 20 -54 38 -112
58 -96 32 -162 41 -235 31z m129 -49 l29 -6 -47 -43 c-51 -47 -48 -48 -108 7
-16 14 -28 28 -28 32 0 16 99 22 154 10z m-155 -87 l50 -45 3 -96 c2 -77 6
-98 20 -107 13 -8 22 -6 38 9 19 17 20 26 14 103 l-6 84 33 35 c66 68 126 81
177 38 56 -47 49 -107 -20 -172 -76 -72 -221 -182 -232 -176 -24 15 -174 139
-218 182 -43 40 -48 50 -48 89 0 60 41 102 98 102 33 0 48 -8 91 -46z m297
-701 c-9 -10 -47 19 -61 47 -12 22 -15 66 -15 194 l0 164 38 30 37 30 3 -230
c1 -127 0 -233 -2 -235z m-374 430 c32 -34 31 -23 29 -221 -1 -159 -2 -164
-26 -187 -13 -14 -29 -25 -35 -25 -7 0 -10 77 -10 230 0 127 4 230 8 230 5 0
20 -12 34 -27z"/>
<path d="M22280 14992 c-31 -25 -21 -69 17 -78 20 -5 31 -2 45 16 23 28 23 35
-2 60 -25 25 -32 25 -60 2z"/>
<path d="M22570 14990 c-25 -25 -25 -42 -2 -63 24 -22 45 -21 65 1 23 25 21
48 -5 66 -29 20 -34 20 -58 -4z"/>
<path d="M19835 14774 c-59 -20 -87 -54 -93 -113 -9 -101 34 -151 132 -151 86
0 98 11 94 85 l-3 60 -52 3 c-47 3 -53 1 -53 -17 0 -14 8 -21 28 -23 20 -2 28
-9 30 -27 5 -31 -8 -42 -48 -43 -81 -3 -110 126 -41 179 20 15 71 16 107 3 32
-12 42 -6 28 18 -18 28 -84 42 -129 26z"/>
<path d="M18566 14773 c-3 -4 -6 -64 -6 -135 l0 -128 59 0 c32 0 71 5 88 10
79 28 94 179 22 233 -27 19 -148 34 -163 20z m129 -55 c49 -43 37 -151 -18
-163 -66 -14 -62 -19 -65 88 l-3 97 30 0 c17 0 41 -10 56 -22z"/>
<path d="M18937 14773 c-4 -3 -7 -64 -7 -135 l0 -129 78 3 c60 2 77 6 77 18 0
11 -12 15 -48 16 -56 1 -70 11 -65 50 3 26 7 29 47 34 58 7 68 30 13 30 -45 0
-65 18 -60 52 3 20 10 23 53 26 55 4 79 17 55 32 -17 11 -133 13 -143 3z"/>
<path d="M19259 14770 c-9 -5 -22 -23 -29 -40 -11 -28 -11 -34 7 -58 11 -15
39 -38 62 -51 32 -17 41 -28 39 -44 -4 -26 -51 -38 -86 -23 -27 11 -40 1 -26
-22 8 -12 27 -18 65 -20 67 -4 99 20 99 72 0 36 -23 63 -77 90 -58 29 -32 85
29 64 34 -12 47 -4 32 20 -13 20 -89 28 -115 12z"/>
<path d="M19535 14768 c-3 -8 -4 -68 -3 -134 l3 -119 28 -3 28 -3 -3 133 c-3
129 -4 133 -26 136 -12 2 -24 -3 -27 -10z"/>
<path d="M20137 14773 c-4 -3 -7 -64 -7 -135 0 -121 1 -128 20 -128 18 0 20 8
22 98 l3 97 53 -97 c49 -89 56 -98 83 -98 l29 0 0 136 c0 124 -2 135 -17 132
-15 -3 -19 -18 -23 -92 -6 -100 -6 -100 -60 4 -18 36 -37 71 -43 78 -10 13
-49 17 -60 5z"/>
<path d="M20752 14767 c-49 -29 -72 -104 -52 -176 16 -61 43 -81 108 -81 46 0
58 4 82 28 49 50 50 172 0 217 -25 23 -107 30 -138 12z m98 -22 c71 -37 58
-193 -18 -210 -66 -14 -110 33 -106 114 3 55 20 88 53 100 36 13 38 13 71 -4z"/>
<path d="M21070 14769 c0 -9 25 -99 66 -241 8 -26 43 -22 53 5 5 12 16 55 26
95 10 40 21 75 26 78 4 2 13 -15 19 -38 41 -154 43 -158 65 -158 19 0 26 15
58 131 21 72 35 134 32 137 -13 14 -34 -29 -55 -113 -12 -49 -26 -94 -30 -99
-8 -8 -39 85 -55 161 -7 33 -31 61 -43 49 -4 -4 -18 -52 -32 -107 -14 -55 -30
-101 -35 -102 -6 -1 -21 41 -35 93 -14 52 -29 101 -33 108 -10 15 -27 16 -27
1z"/>
<path d="M21574 14767 c-2 -7 -3 -67 -2 -133 l3 -119 68 -3 c53 -2 68 0 65 10
-3 8 -25 14 -56 16 l-52 3 0 120 c0 75 -4 119 -10 119 -6 0 -13 -6 -16 -13z"/>
<path d="M22387 14085 c32 -35 63 -64 69 -65 6 0 26 17 44 38 18 20 44 49 58
65 l26 27 -128 0 -128 0 59 -65z"/>
<path d="M8910 13714 c-211 -26 -687 -173 -885 -274 -60 -30 -110 -59 -110
-63 0 -5 140 -52 310 -106 171 -54 328 -107 350 -118 49 -26 81 -60 90 -95 7
-26 5 -27 -91 -58 -97 -31 -169 -44 -433 -75 -298 -36 -450 -103 -480 -212
-10 -33 -5 -243 5 -243 2 0 90 25 196 55 365 105 609 139 835 117 225 -21 325
-62 339 -137 8 -44 -18 -100 -55 -119 -43 -23 -308 -54 -559 -67 -219 -10
-386 -7 -610 12 -68 6 -126 9 -128 6 -7 -6 58 -136 104 -207 48 -76 146 -175
207 -210 97 -55 213 -72 341 -49 32 6 130 30 216 55 308 86 521 117 803 117
185 0 243 -10 281 -48 32 -32 32 -84 2 -112 -24 -22 -181 -82 -328 -126 -202
-61 -413 -106 -615 -131 -198 -24 -242 -27 -438 -28 -103 0 -187 -3 -186 -7 0
-9 171 -149 254 -209 159 -114 325 -180 479 -189 171 -10 320 46 581 218 247
163 423 241 509 225 75 -14 106 -107 55 -163 -43 -46 -291 -203 -423 -268
-151 -73 -345 -145 -463 -171 -86 -19 -107 -34 -50 -34 17 0 147 -5 287 -10
560 -22 965 40 1286 196 41 20 76 35 78 33 9 -10 139 -422 179 -569 76 -275
161 -657 211 -942 5 -25 0 -28 -107 -76 -122 -54 -171 -72 -197 -72 -22 0 -27
29 -40 232 -14 205 -26 287 -57 387 -50 160 -148 269 -318 351 -177 86 -365
128 -620 137 -523 19 -1032 -173 -1390 -522 l-80 -79 257 -12 c449 -22 678
-57 928 -140 140 -46 226 -87 243 -115 14 -23 0 -66 -26 -81 -16 -9 -86 -12
-257 -12 -303 1 -424 15 -830 95 -169 34 -366 33 -471 -2 -99 -33 -184 -91
-220 -148 -16 -25 -29 -48 -29 -52 0 -4 69 -8 153 -8 251 -2 517 -40 763 -111
235 -67 292 -101 280 -165 -14 -75 -120 -124 -308 -145 -108 -13 -183 -10
-508 16 -309 26 -478 10 -664 -62 -238 -92 -443 -276 -531 -476 -13 -32 -21
-58 -16 -58 5 0 28 7 52 16 177 63 434 99 643 92 179 -7 215 -24 216 -101 0
-74 -99 -137 -330 -209 -150 -47 -312 -77 -480 -89 -85 -7 -158 -14 -162 -18
-14 -13 -47 -215 -59 -359 -9 -117 -9 -185 0 -295 11 -142 41 -318 62 -369 21
-52 45 -58 283 -79 723 -61 909 -69 1091 -49 196 23 298 63 391 155 97 96 148
222 174 430 39 308 87 439 193 530 110 94 282 100 369 13 59 -59 72 -120 65
-298 -9 -218 -62 -433 -158 -639 -22 -46 -38 -86 -36 -87 2 -2 37 3 78 10 41
8 130 22 199 31 396 50 562 162 616 413 28 137 18 224 -62 522 -69 254 -80
374 -46 486 34 113 121 194 207 194 42 0 71 -13 85 -39 5 -10 46 -154 90 -319
l80 -300 0 -148 c0 -82 -5 -182 -10 -223 -6 -41 -8 -76 -6 -78 5 -5 107 47
153 78 26 16 34 18 38 7 30 -87 85 -316 135 -565 36 -174 104 -602 98 -608 -2
-2 -59 -8 -128 -14 -732 -67 -1223 -191 -1367 -344 l-45 -48 5 -482 c5 -511
11 -593 63 -907 123 -735 457 -1498 930 -2128 179 -238 299 -375 358 -410 107
-65 69 -63 977 -60 l824 3 50 23 c86 39 120 70 233 205 222 268 390 513 575
837 44 79 184 361 222 450 147 341 266 742 324 1095 53 317 56 373 55 875 -1
529 2 506 -71 570 -108 95 -473 210 -828 260 -44 6 -92 13 -107 16 l-26 5 33
102 c19 56 88 270 155 474 l121 373 50 -39 c27 -22 93 -63 147 -92 53 -29 114
-63 136 -77 48 -30 51 -25 60 77 4 42 18 151 31 243 60 413 138 686 277 966
65 131 100 172 149 172 104 0 170 -116 171 -302 0 -124 -23 -244 -82 -413 -26
-77 -73 -212 -104 -300 -66 -192 -86 -285 -86 -402 0 -139 29 -208 106 -250
51 -28 296 -106 428 -135 83 -19 130 -23 266 -23 247 1 251 2 1003 260 219 75
363 106 519 113 l126 5 6 66 c4 36 25 365 47 731 44 721 44 783 -1 915 -67
196 -284 360 -577 436 -72 19 -114 23 -228 23 -144 0 -157 -2 -480 -75 -77
-18 -132 -23 -240 -24 -147 0 -200 11 -273 55 -39 24 -37 31 39 115 121 131
318 233 601 309 357 96 774 93 1101 -8 l77 -24 0 37 c0 104 -75 276 -168 387
-95 112 -258 226 -452 316 -282 131 -597 245 -810 292 -719 159 -1103 -16
-1304 -593 -20 -56 -43 -130 -52 -164 -21 -82 -47 -131 -87 -161 -32 -24 -61
-33 -229 -71 -93 -20 -230 -85 -313 -148 -262 -198 -501 -582 -551 -886 -30
-179 -4 -455 52 -563 10 -20 60 -82 109 -137 l90 -100 18 107 c36 224 90 389
192 592 121 241 190 320 278 320 27 0 36 -5 45 -25 16 -34 15 -51 -4 -143 -17
-84 -69 -201 -168 -381 -125 -225 -163 -358 -173 -596 -5 -132 -4 -152 11
-164 9 -7 16 -20 16 -28 0 -8 -41 -126 -91 -261 -51 -136 -140 -384 -200 -552
l-108 -305 -58 0 c-32 0 -155 6 -273 13 -118 7 -253 13 -300 15 l-85 2 1 195
c2 415 70 789 308 1680 57 217 128 487 156 600 177 710 318 1072 542 1397 284
411 754 756 1443 1061 99 44 322 139 495 210 483 199 820 351 820 369 0 4 -22
53 -49 108 -186 387 -554 718 -958 864 -163 59 -413 112 -413 87 0 -6 20 -89
45 -186 74 -292 115 -479 115 -526 0 -89 -43 -134 -128 -134 -183 0 -560 342
-724 657 -24 46 -48 83 -54 83 -6 0 -72 -20 -145 -45 -261 -89 -606 -278 -821
-451 -94 -76 -191 -164 -186 -169 2 -2 59 -18 128 -35 291 -73 752 -245 804
-299 61 -63 36 -152 -54 -199 -43 -22 -52 -23 -190 -18 -152 5 -249 23 -395
71 -154 52 -333 146 -457 241 l-56 44 -49 -39 c-84 -67 -212 -209 -273 -303
-54 -83 -119 -214 -109 -221 2 -2 38 -13 79 -26 220 -68 491 -207 653 -336
167 -133 106 -304 -123 -345 -163 -30 -393 43 -552 174 -88 73 -136 96 -199
96 -46 0 -55 -4 -85 -36 -56 -59 -79 -151 -79 -319 1 -166 20 -248 91 -386 61
-118 140 -201 298 -314 155 -110 227 -182 265 -268 40 -88 51 -150 51 -290 0
-268 -55 -507 -266 -1157 -107 -328 -214 -710 -214 -763 0 -12 -4 -28 -8 -35
-11 -17 -65 350 -97 658 -14 135 -32 300 -41 367 l-15 123 26 49 c75 148 103
326 71 451 -32 127 -113 254 -188 294 l-34 18 -33 167 c-107 547 -278 1138
-464 1608 l-64 162 67 20 c292 89 560 321 674 584 28 67 31 81 31 187 0 105
-3 121 -29 185 -62 150 -197 336 -344 476 -168 161 -321 243 -528 284 l-30 6
-1 -158 c0 -175 -18 -289 -72 -447 -53 -156 -96 -209 -168 -209 -77 0 -123 61
-142 185 -10 62 -8 86 20 306 23 181 -16 303 -133 421 -132 131 -306 198 -569
217 l-94 6 41 -43 c181 -193 280 -375 290 -534 4 -60 2 -76 -18 -110 -45 -77
-130 -111 -196 -78 -88 43 -178 336 -197 645 -7 97 -9 107 -29 113 -25 8 -464
15 -516 9z m6435 -3095 c-259 -104 -491 -238 -673 -392 -119 -100 -159 -117
-215 -93 -33 13 -37 19 -37 51 0 41 41 87 150 169 238 178 567 302 810 305
l65 1 -100 -41z m655 -1685 c45 -8 114 -27 153 -41 80 -28 227 -101 227 -112
0 -16 -240 -121 -355 -157 -109 -34 -131 -37 -241 -38 -115 -1 -123 0 -180 29
-143 73 -166 223 -43 285 93 48 289 63 439 34z m-4725 -775 c34 -276 151
-1324 157 -1404 l3 -40 -78 -3 c-57 -2 -78 1 -81 10 -2 7 -18 87 -36 178 -59
305 -151 661 -269 1040 l-39 125 52 60 c63 73 136 167 200 258 26 38 50 66 52
64 2 -2 20 -132 39 -288z m3705 103 c35 -35 54 -100 45 -156 -17 -115 -43
-220 -101 -413 -35 -116 -71 -252 -80 -302 -10 -50 -19 -89 -21 -87 -6 6 -50
275 -79 481 -29 213 -28 295 6 372 53 120 164 171 230 105z"/>
<path d="M12563 1164 c-44 -22 -67 -60 -67 -116 -1 -61 24 -95 101 -133 33
-16 68 -36 77 -44 21 -18 20 -54 -2 -74 -23 -21 -97 -22 -132 -2 -41 23 -50
19 -50 -24 0 -36 3 -40 40 -55 125 -50 260 17 260 129 0 59 -29 98 -97 131
-103 49 -128 87 -77 121 26 17 36 16 127 -14 16 -5 18 -1 15 33 -2 29 -9 42
-28 51 -35 18 -129 16 -167 -3z"/>
<path d="M13001 1171 c-12 -8 -1 -49 60 -231 65 -195 77 -223 99 -232 23 -9
86 -5 97 6 12 11 153 442 148 453 -6 17 -57 17 -76 1 -9 -7 -39 -89 -68 -183
-28 -93 -54 -171 -56 -173 -2 -2 -29 76 -61 175 -31 98 -62 181 -68 185 -15
10 -58 10 -75 -1z"/>
<path d="M13750 1165 c-46 -21 -87 -60 -113 -110 -33 -60 -31 -183 3 -245 28
-50 74 -85 134 -101 50 -14 162 -7 202 12 l29 14 0 115 0 115 -89 3 c-49 2
-94 -2 -99 -7 -5 -5 -7 -21 -3 -35 6 -24 11 -26 56 -26 l50 0 0 -54 c0 -60 -6
-66 -67 -66 -56 0 -99 26 -123 74 -38 80 -15 191 49 229 36 21 135 22 171 2
46 -26 62 -20 58 22 -2 31 -9 41 -33 53 -44 21 -181 24 -225 5z"/>
<path d="M15909 1157 c-41 -28 -59 -60 -59 -110 0 -66 20 -92 106 -135 78 -39
98 -61 85 -94 -5 -14 -17 -28 -26 -32 -29 -11 -99 -6 -125 9 -40 23 -50 18
-50 -20 0 -52 34 -70 131 -70 63 0 83 4 105 21 48 36 66 67 66 119 0 64 -22
91 -108 137 -78 41 -96 62 -83 95 12 32 54 39 110 20 26 -10 49 -17 53 -17 3
0 6 16 6 36 0 31 -4 37 -35 50 -54 22 -136 18 -176 -9z"/>
<path d="M17593 1172 c-9 -6 -13 -53 -15 -159 l-3 -151 -81 151 -81 152 -64 0
-64 0 -3 -226 c-2 -216 -1 -227 17 -232 10 -2 31 -2 45 0 l26 5 2 164 3 164
30 -58 c72 -138 139 -258 149 -264 6 -4 32 -8 57 -8 34 0 49 5 53 16 3 9 6
112 6 229 0 185 -2 214 -16 219 -21 8 -46 7 -61 -2z"/>
<path d="M18056 1166 c-47 -18 -91 -59 -119 -111 -30 -58 -30 -183 1 -242 28
-53 74 -88 135 -104 56 -14 162 -8 203 12 l29 14 0 115 0 115 -92 3 c-82 2
-92 1 -97 -16 -12 -38 3 -52 55 -52 l49 0 0 -54 c0 -60 -6 -66 -67 -66 -56 0
-99 26 -123 74 -37 78 -21 168 39 219 27 22 42 27 87 27 30 0 71 -7 91 -15 54
-23 63 -20 63 20 0 51 -32 68 -134 72 -53 2 -94 -2 -120 -11z"/>
<path d="M18973 1174 c-10 -4 -13 -51 -13 -183 0 -204 -6 -224 -59 -205 -36
14 -41 10 -41 -32 0 -39 21 -54 77 -54 46 0 100 31 108 62 3 13 4 111 3 218
l-3 195 -30 2 c-16 1 -36 0 -42 -3z"/>
<path d="M19995 1162 c-59 -28 -110 -89 -125 -152 -22 -92 3 -204 57 -252 10
-10 41 -27 67 -39 41 -18 63 -21 125 -17 42 2 90 11 106 19 l30 14 0 115 0
115 -95 0 -95 0 0 -30 c0 -29 2 -30 48 -33 l47 -3 0 -53 c0 -59 -7 -66 -66
-66 -53 0 -93 26 -115 73 -38 85 -13 199 51 232 40 21 126 19 178 -5 48 -22
56 -16 50 37 -4 39 -46 57 -143 61 -62 2 -89 -2 -120 -16z"/>
<path d="M21473 1164 c-3 -9 -2 -24 4 -33 5 -9 30 -54 55 -101 l46 -85 -59
-105 c-32 -58 -59 -111 -59 -117 0 -7 10 -15 23 -18 44 -12 70 9 112 90 22 42
43 79 46 81 4 2 26 -34 50 -80 38 -74 47 -85 75 -90 36 -7 64 1 64 19 0 6 -25
59 -57 116 l-56 104 57 109 c61 115 62 126 6 126 -37 0 -45 -8 -85 -88 -20
-39 -40 -72 -43 -72 -4 0 -23 30 -42 67 -19 36 -41 72 -48 80 -19 19 -81 17
-89 -3z"/>
<path d="M14780 940 l0 -230 135 0 135 0 0 35 0 35 -90 0 -90 0 0 65 0 65 74
0 c66 0 75 2 81 20 3 11 3 29 0 40 -6 18 -15 20 -81 20 l-74 0 0 55 0 55 90 0
90 0 0 35 0 35 -135 0 -135 0 0 -230z"/>
<path d="M15310 941 l0 -230 23 -3 c12 -2 32 -2 45 0 21 4 22 9 22 83 l0 79
41 0 c139 0 220 102 174 218 -26 65 -68 82 -200 82 l-105 0 0 -229z m195 134
c55 -55 10 -135 -75 -135 l-30 0 0 80 0 80 40 0 c30 0 47 -7 65 -25z"/>
<path d="M16727 1163 c-4 -3 -7 -106 -7 -229 l0 -222 23 -4 c12 -2 33 -1 47 2
24 6 25 10 28 83 l3 77 46 0 c67 0 129 33 153 81 41 79 15 175 -55 205 -35 14
-225 21 -238 7z m193 -83 c25 -25 26 -80 2 -110 -11 -13 -33 -23 -60 -27 l-42
-6 0 82 0 81 40 0 c27 0 47 -7 60 -20z"/>
<path d="M19326 1154 c-3 -9 -6 -110 -6 -225 0 -209 0 -209 23 -218 13 -5 35
-7 50 -4 27 5 27 6 27 84 l0 79 48 0 c108 1 172 61 172 161 0 63 -20 98 -70
124 -43 22 -235 21 -244 -1z m192 -70 c34 -23 31 -95 -4 -123 -15 -12 -41 -21
-60 -21 l-34 0 0 80 0 80 38 0 c21 0 48 -7 60 -16z"/>
<path d="M20862 943 l3 -228 109 -3 c100 -2 114 -1 160 22 28 14 61 40 73 58
47 70 53 199 14 277 -42 81 -91 101 -246 101 l-115 0 2 -227z m211 143 c44
-18 67 -57 74 -122 7 -66 -16 -135 -54 -160 -17 -10 -48 -17 -82 -18 l-56 -1
-3 158 -3 157 46 0 c25 0 60 -6 78 -14z"/>
<path d="M22070 941 l0 -230 23 -3 c12 -2 32 -2 45 0 21 4 22 9 22 93 l0 88
78 3 77 3 3 38 3 37 -81 0 -81 0 3 63 3 62 83 3 82 3 0 34 0 35 -130 0 -130 0
0 -229z"/>
</g>
</svg>
